<?xml version="1.0"?>
<svg width="640" height="480" xmlns="http://www.w3.org/2000/svg" xmlns:svg="http://www.w3.org/2000/svg">
 <!-- Created with SVG-edit - https://github.com/SVG-Edit/svgedit-->
 <g class="layer">
  <title>Layer 1</title>
  <polygon cx="573.5" cy="137.5" fill="#000000" id="svg_4" orient="point" point="5" r="0" r2="0" shape="star" strokeWidth="0" strokecolor="#000000"/>
  <polygon cx="393.5" cy="33.5" fill="#000000" id="svg_5" orient="point" point="5" r="0" r2="0" shape="star" strokeWidth="0" strokecolor="#000000"/>
  <polygon cx="381.5" cy="61.5" fill="#000000" id="svg_6" orient="point" point="5" r="0" r2="0" shape="star" strokeWidth="0" strokecolor="#000000"/>
  <polygon cx="569.5" cy="172.5" fill="#000000" id="svg_9" orient="point" point="5" r="0" r2="0" shape="star" strokeWidth="0" strokecolor="#000000"/>
  <polygon cx="587.5" cy="-9.5" fill="#000000" id="svg_10" orient="point" point="5" r="0" r2="0" shape="star" strokeWidth="0" strokecolor="#000000"/>
  <polygon cx="570.5" cy="-10.5" fill="#000000" id="svg_11" orient="point" point="5" r="0" r2="0" shape="star" strokeWidth="0" strokecolor="#000000"/>
  <polygon cx="570.5" cy="-10.5" fill="#000000" id="svg_12" orient="point" point="5" r="0" r2="0" shape="star" strokeWidth="0" strokecolor="#000000"/>
  <polygon cx="489.5" cy="-141.5" fill="#000000" id="svg_13" orient="point" point="5" points="489.5,-141.5 489.5,-141.5 489.5,-141.5 489.5,-141.5 489.5,-141.5 489.5,-141.5 489.5,-141.5 489.5,-141.5 489.5,-141.5 489.5,-141.5 489.5,-141.5 489.5,-141.5 " r="0" r2="0" shape="star" stroke="#000000" stroke-width="0" strokeWidth="0" strokecolor="#000000"/>
  <g id="svg_15">
   <text fill="#ff0000" font-family="serif" font-size="50" id="svg_1" stroke="#000000" stroke-width="0" text-anchor="middle" transform="matrix(1 0 0 0.925042 0 13.2607)" x="323.5" xml:space="preserve" y="255.765264">PAAM</text>
   <polygon cx="379.5" cy="42.5" fill="#000000" id="svg_3" orient="point" point="5" points="404.5,189.93972778320312 409.18963623046875,206.37454223632812 423.46990966796875,206.72903442382812 412.0879821777344,217.24081420898438 416.22406005859375,233.89471435546875 404.5,223.95652770996094 392.77593994140625,233.89471435546875 396.9120178222656,217.24081420898438 385.53009033203125,206.72903442382812 399.81036376953125,206.37454223632812 404.5,189.93972778320312 409.18963623046875,206.37454223632812 " r="36.769553" r2="14.707821" shape="star" stroke="#000000" stroke-width="0" strokeWidth="0" strokecolor="#000000"/>
   <polygon cx="383.5" cy="43.5" fill="#000000" id="svg_7" orient="point" point="5" points="401.5,155.5 401.5,155.5 401.5,155.5 401.5,155.5 401.5,155.5 401.5,155.5 401.5,155.5 401.5,155.5 401.5,155.5 401.5,155.5 401.5,155.5 401.5,155.5 " r="0" r2="0" shape="star" stroke="#000000" stroke-width="0" strokeWidth="0" strokecolor="#000000"/>
   <polygon cx="540.5" cy="-85.5" fill="#000000" id="svg_8" orient="point" point="5" points="244.5,237.43453979492188 249.72128295898438,252.9415283203125 265.6204833984375,253.27598571777344 252.94818115234375,263.1943359375 257.55316162109375,278.90802001953125 244.5,269.5309143066406 231.44683837890625,278.90802001953125 236.05181884765625,263.1943359375 223.3795166015625,253.27598571777344 239.27871704101562,252.9415283203125 244.5,237.43453979492188 249.72128295898438,252.9415283203125 " r="251.426154" r2="100.570462" shape="star" stroke="#000000" stroke-width="0" strokeWidth="0" strokecolor="#000000"/>
  </g>
 </g>
</svg>